Coordinates
version=1
nRows=15
nColumns=34
inDegrees=yes

Units are S.I. units (second, meters, Newtons, ...)
If the header above contains a line with 'inDegrees', this indicates whether rotational values are in degrees (yes) or radians (no).

endheader
time	pelvis_tilt	pelvis_list	pelvis_rotation	pelvis_tx	pelvis_ty	pelvis_tz	hip_flexion_r	hip_adduction_r	hip_rotation_r	knee_angle_r	ankle_angle_r	subtalar_angle_r	mtp_angle_r	hip_flexion_l	hip_adduction_l	hip_rotation_l	knee_angle_l	ankle_angle_l	subtalar_angle_l	mtp_angle_l	lumbar_extension	lumbar_bending	lumbar_rotation	arm_flex_r	arm_add_r	arm_rot_r	elbow_flex_r	pro_sup_r	arm_flex_l	arm_add_l	arm_rot_l	elbow_flex_l	pro_sup_l
      4.28333330	     15.04838337	      0.60633457	    -56.54092820	     -2.81449486	      1.05335373	     -0.05201898	     20.63724686	      6.73190946	      3.48665549	     28.81002696	    -20.23679173	    -20.57195510	      0.00000000	      1.64371956	     -0.70030758	    -11.91384484	     45.33238305	     -5.31223658	    -28.04428036	      0.00000000	     -5.96948972	      5.69122307	    -35.19099105	      7.40203384	    -25.50700607	     28.64858151	    119.28051243	     77.68882134	     78.07065726	    -28.41648482	   -105.91198328	     10.52114093	    113.17907843
      4.30000000	     15.57626966	      0.41373791	    -55.28359480	     -2.77761503	      1.03998175	     -0.05350567	     19.55554891	      5.46669417	      3.66701102	     31.68521400	    -15.81017154	    -27.42593257	      0.00000000	      3.48510108	     -4.22554821	    -11.89486446	     44.33118575	     -5.33083501	    -29.60410331	      0.00000000	     -6.32713494	      6.07415680	    -34.33886970	      1.83205321	    -24.51541518	     16.66678216	    124.75548903	     78.28552010	     79.62638510	    -27.69114320	   -106.35774119	      9.41758907	    116.97459901
      4.31666670	     15.67034340	     -0.13971493	    -54.51080598	     -2.74605571	      1.02629553	     -0.05468341	     18.98786984	      4.70699706	      3.76936646	     35.11562436	     -9.71849316	    -32.26698533	      0.00000000	      5.32462701	     -8.08975070	    -11.86382136	     42.74791270	     -4.83924564	    -30.12088574	      0.00000000	     -6.51057472	      6.57135960	    -34.74760016	      0.59037816	    -23.98959069	      6.49632413	    127.52888187	     78.88036313	     80.12697509	    -29.04106746	   -106.33860166	      8.73275441	    119.74817918
      4.33333330	     15.47613727	     -0.70330207	    -54.15702185	     -2.71835171	      1.01423451	     -0.05450891	     19.13758486	      4.21395889	      3.81281563	     38.86396015	     -3.37353562	    -35.00000000	      0.00000000	      7.27218960	    -12.00304128	    -11.87212213	     40.40490516	     -4.72756683	    -29.69580252	      0.00000000	     -7.19745999	      6.91136683	    -34.01029769	     -0.87779450	    -25.14847001	     -6.93828303	    131.06235433	     79.96336068	     81.37412367	    -30.12295506	   -105.37451027	      6.89483238	    119.74817918
      4.35000000	     15.05007981	     -1.24836510	    -54.18357252	     -2.68831374	      1.00561446	     -0.05330231	     19.87462884	      3.55959436	      3.05608636	     42.86714143	      2.78957740	    -35.00000000	      0.00000000	      9.04676683	    -15.68217798	    -11.83422618	     37.12365542	     -5.15070048	    -28.44384602	      0.00000000	     -7.56681592	      6.94386030	    -34.10920783	      0.64282079	    -28.41320505	    -19.40162418	    129.65621031	     80.62533680	     82.05515982	    -32.28618616	   -104.01994236	      5.39078568	    119.74817918
      4.36666670	     14.27762421	     -1.78294303	    -54.10278423	     -2.65256688	      1.00070421	     -0.05219459	     20.91238034	      2.52046478	      1.03157958	     46.66465812	      7.08357697	    -35.00000000	      0.00000000	     10.81627363	    -18.98911896	    -11.39095589	     33.34941953	     -6.64851451	    -26.27195560	      0.00000000	     -8.16549061	      7.84477869	    -32.24410542	     -1.06121109	    -32.32020824	    -36.30721122	    128.87264651	     85.63229987	     82.58813292	    -31.53186420	    -98.45278916	      4.97027626	    119.74817918
      4.38333330	     13.67533531	     -2.29927310	    -54.38673936	     -2.61624706	      0.99836880	     -0.05093285	     21.85253740	      0.78119749	     -1.46692425	     50.25823299	      9.69704831	    -35.00000000	      0.00000000	     11.76904053	    -21.55769924	    -11.90343961	     29.17136641	     -8.42331365	    -22.86552781	      0.00000000	     -8.62324001	      8.47688367	    -31.06412368	     -1.26034683	    -35.96545161	    -49.56589752	    123.52386214	     94.69507307	     82.33301502	    -31.93983188	    -91.60978191	      4.72194623	    119.74817918
      4.40000000	     13.12004149	     -2.54601451	    -54.10592678	     -2.58158496	      0.99685301	     -0.05027634	     22.46494321	     -1.73674179	     -4.18613886	     53.35643996	     11.13141423	    -35.00000000	      0.00000000	     13.06153410	    -23.00679325	    -11.58308846	     25.48247858	    -10.82098706	    -20.48229654	      0.00000000	     -8.09767643	      9.00401308	    -31.45494675	      1.64591508	    -38.31541832	    -58.65624137	    116.57780869	    107.03649951	     80.07123734	    -32.66506068	    -85.36355571	      7.37656433	    119.74817918
      4.41666670	     13.10437197	     -2.45286488	    -53.56882996	     -2.55004806	      0.99426323	     -0.05043408	     22.45865011	     -4.40008544	     -4.67518629	     56.03592889	     11.70759806	    -35.00000000	      0.00000000	     14.37882156	    -23.31726710	    -11.60628259	     22.63776961	    -11.68087541	    -16.27682379	      0.00000000	     -7.45198867	      8.84615548	    -32.26325549	      5.41064538	    -38.83217478	    -65.92868837	    111.04986454	    110.37290303	     77.82307215	    -35.71468772	    -84.52924638	      6.25218792	    119.74817918
      4.43333330	     13.09263531	     -2.27724504	    -52.95507046	     -2.51844726	      0.98888746	     -0.05172864	     21.79861101	     -6.47505533	     -3.19076685	     58.00159448	     12.88208974	    -35.00000000	      0.00000000	     15.91242230	    -23.27426196	    -11.80687623	     20.79391459	    -12.31471497	    -11.83122529	      0.00000000	     -6.56273888	      8.39170671	    -33.25613766	     10.00461377	    -39.35412838	    -71.72994723	    105.80884956	    117.24997416	     74.68522888	    -38.64984541	    -82.29845378	      8.26998053	    119.73811758
      4.45000000	     12.94016802	     -1.73778442	    -52.15665241	     -2.48570681	      0.98239557	     -0.05324194	     21.01754966	     -9.07451053	     -1.80133330	     59.97448219	     15.26919924	    -34.95424662	      0.00000000	     18.08751985	    -22.60350484	    -10.85959814	     19.89133897	    -14.30868135	     -9.83313384	      0.00000000	     -5.10921881	      8.05670835	    -34.22657559	     13.33902378	    -40.62286139	    -76.15414263	    102.77772670	    119.74817918	     71.53658400	    -42.38897510	    -81.90033913	      8.34586891	    119.34344481
      4.46666670	     12.96966417	     -1.02079258	    -51.66400421	     -2.45307521	      0.97775540	     -0.05364137	     19.87288473	    -13.03185042	     -1.84784059	     61.93519443	     16.34457356	    -35.00000000	      0.00000000	     19.69512405	    -21.46692896	    -10.30983876	     19.35117216	    -16.68631445	     -8.67414183	      0.00000000	     -2.76564835	      7.31014678	    -36.64245080	     20.05745609	    -41.79834255	    -72.42946495	     99.84303668	    119.74817918	     65.76756295	    -47.18627269	    -80.07730960	      9.42629610	    116.98277507
      4.48333330	     13.43593891	     -0.27089777	    -51.29455552	     -2.42183236	      0.97615175	     -0.05383822	     18.48829210	    -18.04889172	     -3.28675058	     63.76086060	     14.88764245	    -35.00000000	      0.00000000	     20.63887448	    -19.71418638	    -10.02875994	     19.25065666	    -19.15885269	     -8.68840189	      0.00000000	     -1.18543710	      6.38185063	    -35.89696254	     20.64229358	    -44.81614318	    -71.24185583	    104.38307786	    119.74817918	     63.70248186	    -48.21720336	    -80.28276868	     10.21235050	    116.33424604
      4.50000000	     13.63508971	      0.43170105	    -50.78771257	     -2.38962839	      0.97676478	     -0.05412322	     17.20174408	    -22.18157560	     -4.96697137	     64.58522449	     11.09442516	    -35.00000000	      0.00000000	     21.60958650	    -17.80195391	     -9.15172216	     19.54429182	    -22.04420192	    -10.55507186	      0.00000000	      1.16013982	      5.76234635	    -34.46798663	     20.18910112	    -48.86118082	    -65.11415615	    112.94194616	    119.74817918	     61.18534507	    -45.83559557	    -81.55531761	     14.81249615	    114.49635052
      4.51666670	     14.01007622	      0.66330149	    -50.35981561	     -2.35637173	      0.97823239	     -0.05304291	     15.77085480	    -24.78654675	     -5.37192095	     64.58582931	      7.24645817	    -35.00000000	      0.00000000	     21.66571366	    -15.96794962	     -8.63048837	     20.01529522	    -24.01787227	    -12.43575104	      0.00000000	      2.92701395	      5.22679543	    -31.76543667	     17.47288152	    -55.41369017	    -55.18065879	    124.90126200	    117.36888883	     60.28948127	    -41.13001098	    -87.06420590	     21.88423833	    112.14620485
